<svg xmlns="http://www.w3.org/2000/svg" xmlns:xlink="http://www.w3.org/1999/xlink" contentStyleType="text/css" data-diagram-type="SEQUENCE" height="1391px" preserveAspectRatio="none" style="width:996px;height:1391px;background:#020617;" version="1.1" viewBox="0 0 996 1391" width="996px" zoomAndPan="magnify"><title>Evaluation Flow Sequence Diagram (Task 7)</title><defs/><g><rect fill="#020617" height="1391" style="stroke:none;stroke-width:1;" width="996" x="0" y="0"/><rect fill="#0F172A" height="28.8438" rx="6" ry="6" style="stroke:#334155;stroke-width:1;" width="370.2969" x="308.9525" y="10"/><text fill="#F1F5F9" font-family="sans-serif" font-size="16" font-weight="bold" lengthAdjust="spacing" textLength="360.2969" x="313.9525" y="30.4688">Evaluation Flow Sequence Diagram (Task 7)</text><g><title>..Service..</title><rect fill="#0F172A" height="456.2793" style="stroke:#181818;stroke-width:1;" width="10" x="251.2419" y="297.5723"/></g><g><title>..Database..</title><rect fill="#0F172A" height="26.9551" style="stroke:#181818;stroke-width:1;" width="10" x="381.24" y="324.5273"/></g><g><title>..Service..</title><rect fill="#0F172A" height="26.9551" style="stroke:#181818;stroke-width:1;" width="10" x="469.9321" y="474.2793"/></g><g><title>..Service..</title><rect fill="#0F172A" height="149.752" style="stroke:#181818;stroke-width:1;" width="10" x="551.5054" y="528.1895"/></g><g><title>..Service..</title><rect fill="#0F172A" height="186.7754" style="stroke:#181818;stroke-width:1;" width="10" x="831.1086" y="823.1172"/></g><g><title>..Service..</title><rect fill="#0F172A" height="106.8652" style="stroke:#181818;stroke-width:1;" width="10" x="831.1086" y="1080.1582"/></g><rect fill="none" height="492.8555" rx="6" ry="6" style="stroke:#334155;stroke-width:1.5;" width="748.728" x="10" y="260.9961"/><rect fill="none" height="380.3691" rx="6" ry="6" style="stroke:#334155;stroke-width:1.5;" width="728.728" x="20" y="366.4824"/><rect fill="none" height="196.6621" rx="6" ry="6" style="stroke:#334155;stroke-width:1.5;" width="708.728" x="30" y="543.1895"/><g><title>..Script..</title><rect fill="#000000" fill-opacity="0.00000" height="1251.7344" width="8" x="88.9792" y="90.4648"/><line style="stroke:#334155;stroke-width:0.5;stroke-dasharray:5,5;" x1="92" x2="92" y1="90.4648" y2="1342.1992"/></g><g><title>..Service..</title><rect fill="#000000" fill-opacity="0.00000" height="1251.7344" width="8" x="252.2419" y="90.4648"/><line style="stroke:#334155;stroke-width:0.5;stroke-dasharray:5,5;" x1="255.9177" x2="255.9177" y1="90.4648" y2="1342.1992"/></g><g><title>..Database..</title><rect fill="#000000" fill-opacity="0.00000" height="1251.7344" width="8" x="382.24" y="90.4648"/><line style="stroke:#334155;stroke-width:0.5;stroke-dasharray:5,5;" x1="385.3345" x2="385.3345" y1="90.4648" y2="1342.1992"/></g><g><title>..Service..</title><rect fill="#000000" fill-opacity="0.00000" height="1251.7344" width="8" x="470.9321" y="90.4648"/><line style="stroke:#334155;stroke-width:0.5;stroke-dasharray:5,5;" x1="474.1455" x2="474.1455" y1="90.4648" y2="1342.1992"/></g><g><title>..Service..</title><rect fill="#000000" fill-opacity="0.00000" height="1251.7344" width="8" x="552.5054" y="90.4648"/><line style="stroke:#334155;stroke-width:0.5;stroke-dasharray:5,5;" x1="555.7188" x2="555.7188" y1="90.4648" y2="1342.1992"/></g><g><title>..Logger..</title><rect fill="#000000" fill-opacity="0.00000" height="1251.7344" width="8" x="661.51" y="90.4648"/><line style="stroke:#334155;stroke-width:0.5;stroke-dasharray:5,5;" x1="665.292" x2="665.292" y1="90.4648" y2="1342.1992"/></g><g><title>..Service..</title><rect fill="#000000" fill-opacity="0.00000" height="1251.7344" width="8" x="832.1086" y="90.4648"/><line style="stroke:#334155;stroke-width:0.5;stroke-dasharray:5,5;" x1="835.8394" x2="835.8394" y1="90.4648" y2="1342.1992"/></g><g class="participant participant-head" data-participant="Eval"><rect fill="#1E293B" height="44.6211" rx="6" ry="6" style="stroke:#6366F1;stroke-width:0.5;" width="105.9585" x="40" y="44.8438"/><text fill="#F1F5F9" font-family="sans-serif" font-size="13" font-style="italic" lengthAdjust="spacing" textLength="49.4038" x="68.2773" y="64.4121">&#171;Script&#187;</text><text fill="#F1F5F9" font-family="sans-serif" font-size="13" lengthAdjust="spacing" textLength="91.9585" x="47" y="79.7227">Evaluate Script</text></g><g class="participant participant-tail" data-participant="Eval"><rect fill="#1E293B" height="44.6211" rx="6" ry="6" style="stroke:#6366F1;stroke-width:0.5;" width="105.9585" x="40" y="1341.1992"/><text fill="#F1F5F9" font-family="sans-serif" font-size="13" font-style="italic" lengthAdjust="spacing" textLength="49.4038" x="68.2773" y="1360.7676">&#171;Script&#187;</text><text fill="#F1F5F9" font-family="sans-serif" font-size="13" lengthAdjust="spacing" textLength="91.9585" x="47" y="1376.0781">Evaluate Script</text></g><g class="participant participant-head" data-participant="RAG"><rect fill="#1E293B" height="44.6211" rx="6" ry="6" style="stroke:#6366F1;stroke-width:0.5;" width="88.6484" x="211.9177" y="44.8438"/><text fill="#F1F5F9" font-family="sans-serif" font-size="13" font-style="italic" lengthAdjust="spacing" textLength="57.5732" x="227.4553" y="64.4121">&#171;Service&#187;</text><text fill="#F1F5F9" font-family="sans-serif" font-size="13" lengthAdjust="spacing" textLength="74.6484" x="218.9177" y="79.7227">RAG Service</text></g><g class="participant participant-tail" data-participant="RAG"><rect fill="#1E293B" height="44.6211" rx="6" ry="6" style="stroke:#6366F1;stroke-width:0.5;" width="88.6484" x="211.9177" y="1341.1992"/><text fill="#F1F5F9" font-family="sans-serif" font-size="13" font-style="italic" lengthAdjust="spacing" textLength="57.5732" x="227.4553" y="1360.7676">&#171;Service&#187;</text><text fill="#F1F5F9" font-family="sans-serif" font-size="13" lengthAdjust="spacing" textLength="74.6484" x="218.9177" y="1376.0781">RAG Service</text></g><g class="participant participant-head" data-participant="VDB"><rect fill="#1E293B" height="44.6211" rx="6" ry="6" style="stroke:#6366F1;stroke-width:0.5;" width="85.811" x="343.3345" y="44.8438"/><text fill="#F1F5F9" font-family="sans-serif" font-size="13" font-style="italic" lengthAdjust="spacing" textLength="71.811" x="350.3345" y="64.4121">&#171;Database&#187;</text><text fill="#F1F5F9" font-family="sans-serif" font-size="13" lengthAdjust="spacing" textLength="61.896" x="355.292" y="79.7227">Vector DB</text></g><g class="participant participant-tail" data-participant="VDB"><rect fill="#1E293B" height="44.6211" rx="6" ry="6" style="stroke:#6366F1;stroke-width:0.5;" width="85.811" x="343.3345" y="1341.1992"/><text fill="#F1F5F9" font-family="sans-serif" font-size="13" font-style="italic" lengthAdjust="spacing" textLength="71.811" x="350.3345" y="1360.7676">&#171;Database&#187;</text><text fill="#F1F5F9" font-family="sans-serif" font-size="13" lengthAdjust="spacing" textLength="61.896" x="355.292" y="1376.0781">Vector DB</text></g><g class="participant participant-head" data-participant="RR"><rect fill="#1E293B" height="44.6211" rx="6" ry="6" style="stroke:#6366F1;stroke-width:0.5;" width="71.5732" x="439.1455" y="44.8438"/><text fill="#F1F5F9" font-family="sans-serif" font-size="13" font-style="italic" lengthAdjust="spacing" textLength="57.5732" x="446.1455" y="64.4121">&#171;Service&#187;</text><text fill="#F1F5F9" font-family="sans-serif" font-size="13" lengthAdjust="spacing" textLength="56.1895" x="446.8374" y="79.7227">Reranker</text></g><g class="participant participant-tail" data-participant="RR"><rect fill="#1E293B" height="44.6211" rx="6" ry="6" style="stroke:#6366F1;stroke-width:0.5;" width="71.5732" x="439.1455" y="1341.1992"/><text fill="#F1F5F9" font-family="sans-serif" font-size="13" font-style="italic" lengthAdjust="spacing" textLength="57.5732" x="446.1455" y="1360.7676">&#171;Service&#187;</text><text fill="#F1F5F9" font-family="sans-serif" font-size="13" lengthAdjust="spacing" textLength="56.1895" x="446.8374" y="1376.0781">Reranker</text></g><g class="participant participant-head" data-participant="LLM"><rect fill="#1E293B" height="44.6211" rx="6" ry="6" style="stroke:#6366F1;stroke-width:0.5;" width="71.5732" x="520.7188" y="44.8438"/><text fill="#F1F5F9" font-family="sans-serif" font-size="13" font-style="italic" lengthAdjust="spacing" textLength="57.5732" x="527.7188" y="64.4121">&#171;Service&#187;</text><text fill="#F1F5F9" font-family="sans-serif" font-size="13" lengthAdjust="spacing" textLength="25.0605" x="543.9751" y="79.7227">LLM</text></g><g class="participant participant-tail" data-participant="LLM"><rect fill="#1E293B" height="44.6211" rx="6" ry="6" style="stroke:#6366F1;stroke-width:0.5;" width="71.5732" x="520.7188" y="1341.1992"/><text fill="#F1F5F9" font-family="sans-serif" font-size="13" font-style="italic" lengthAdjust="spacing" textLength="57.5732" x="527.7188" y="1360.7676">&#171;Service&#187;</text><text fill="#F1F5F9" font-family="sans-serif" font-size="13" lengthAdjust="spacing" textLength="25.0605" x="543.9751" y="1376.0781">LLM</text></g><g class="participant participant-head" data-participant="Log"><rect fill="#1E293B" height="44.6211" rx="6" ry="6" style="stroke:#6366F1;stroke-width:0.5;" width="126.436" x="602.292" y="44.8438"/><text fill="#F1F5F9" font-family="sans-serif" font-size="13" font-style="italic" lengthAdjust="spacing" textLength="57.313" x="636.8535" y="64.4121">&#171;Logger&#187;</text><text fill="#F1F5F9" font-family="sans-serif" font-size="13" lengthAdjust="spacing" textLength="112.436" x="609.292" y="79.7227">Evaluation Logger</text></g><g class="participant participant-tail" data-participant="Log"><rect fill="#1E293B" height="44.6211" rx="6" ry="6" style="stroke:#6366F1;stroke-width:0.5;" width="126.436" x="602.292" y="1341.1992"/><text fill="#F1F5F9" font-family="sans-serif" font-size="13" font-style="italic" lengthAdjust="spacing" textLength="57.313" x="636.8535" y="1360.7676">&#171;Logger&#187;</text><text fill="#F1F5F9" font-family="sans-serif" font-size="13" lengthAdjust="spacing" textLength="112.436" x="609.292" y="1376.0781">Evaluation Logger</text></g><g class="participant participant-head" data-participant="Report"><rect fill="#1E293B" height="44.6211" rx="6" ry="6" style="stroke:#6366F1;stroke-width:0.5;" width="122.5386" x="774.8394" y="44.8438"/><text fill="#F1F5F9" font-family="sans-serif" font-size="13" font-style="italic" lengthAdjust="spacing" textLength="57.5732" x="807.322" y="64.4121">&#171;Service&#187;</text><text fill="#F1F5F9" font-family="sans-serif" font-size="13" lengthAdjust="spacing" textLength="108.5386" x="781.8394" y="79.7227">Report Generator</text></g><g class="participant participant-tail" data-participant="Report"><rect fill="#1E293B" height="44.6211" rx="6" ry="6" style="stroke:#6366F1;stroke-width:0.5;" width="122.5386" x="774.8394" y="1341.1992"/><text fill="#F1F5F9" font-family="sans-serif" font-size="13" font-style="italic" lengthAdjust="spacing" textLength="57.5732" x="807.322" y="1360.7676">&#171;Service&#187;</text><text fill="#F1F5F9" font-family="sans-serif" font-size="13" lengthAdjust="spacing" textLength="108.5386" x="781.8394" y="1376.0781">Report Generator</text></g><g><title>..Service..</title><rect fill="#0F172A" height="456.2793" style="stroke:#181818;stroke-width:1;" width="10" x="251.2419" y="297.5723"/></g><g><title>..Database..</title><rect fill="#0F172A" height="26.9551" style="stroke:#181818;stroke-width:1;" width="10" x="381.24" y="324.5273"/></g><g><title>..Service..</title><rect fill="#0F172A" height="26.9551" style="stroke:#181818;stroke-width:1;" width="10" x="469.9321" y="474.2793"/></g><g><title>..Service..</title><rect fill="#0F172A" height="149.752" style="stroke:#181818;stroke-width:1;" width="10" x="551.5054" y="528.1895"/></g><g><title>..Service..</title><rect fill="#0F172A" height="186.7754" style="stroke:#181818;stroke-width:1;" width="10" x="831.1086" y="823.1172"/></g><g><title>..Service..</title><rect fill="#0F172A" height="106.8652" style="stroke:#181818;stroke-width:1;" width="10" x="831.1086" y="1080.1582"/></g><rect fill="#0F172A" height="3" rx="6" ry="6" style="stroke:#0F172A;stroke-width:1;" width="989.2019" x="0" y="121.1201"/><line style="stroke:#334155;stroke-width:1;" x1="0" x2="989.2019" y1="121.1201" y2="121.1201"/><line style="stroke:#334155;stroke-width:1;" x1="0" x2="989.2019" y1="124.1201" y2="124.1201"/><rect fill="#0F172A" height="23.3105" rx="6" ry="6" style="stroke:#334155;stroke-width:2;" width="102.6133" x="443.2943" y="110.4648"/><text fill="#F1F5F9" font-family="sans-serif" font-size="13" font-weight="bold" lengthAdjust="spacing" textLength="84.3286" x="449.2943" y="127.0332">Initialization</text><g class="message" data-participant-1="Eval" data-participant-2="Eval"><line style="stroke:#6366F1;stroke-width:1;" x1="92.9792" x2="134.9792" y1="162.7305" y2="162.7305"/><line style="stroke:#6366F1;stroke-width:1;" x1="134.9792" x2="134.9792" y1="162.7305" y2="175.7305"/><line style="stroke:#6366F1;stroke-width:1;" x1="93.9792" x2="134.9792" y1="175.7305" y2="175.7305"/><polygon fill="#6366F1" points="103.9792,171.7305,93.9792,175.7305,103.9792,179.7305,99.9792,175.7305" style="stroke:#6366F1;stroke-width:1;"/><text fill="#94A3B8" font-family="sans-serif" font-size="11" lengthAdjust="spacing" textLength="149.2627" x="99.9792" y="158.4102">Load golden_questions.json</text></g><g class="message" data-participant-1="Eval" data-participant-2="Log"><polygon fill="#6366F1" points="653.51,198.6855,663.51,202.6855,653.51,206.6855,657.51,202.6855" style="stroke:#6366F1;stroke-width:1;"/><line style="stroke:#6366F1;stroke-width:1;" x1="92.9792" x2="659.51" y1="202.6855" y2="202.6855"/><text fill="#94A3B8" font-family="sans-serif" font-size="11" lengthAdjust="spacing" textLength="102.4751" x="99.9792" y="198.3652">Clear previous logs</text></g><rect fill="#0F172A" height="3" rx="6" ry="6" style="stroke:#0F172A;stroke-width:1;" width="989.2019" x="0" y="231.3408"/><line style="stroke:#334155;stroke-width:1;" x1="0" x2="989.2019" y1="231.3408" y2="231.3408"/><line style="stroke:#334155;stroke-width:1;" x1="0" x2="989.2019" y1="234.3408" y2="234.3408"/><rect fill="#0F172A" height="23.3105" rx="6" ry="6" style="stroke:#334155;stroke-width:2;" width="125.2554" x="431.9733" y="220.6855"/><text fill="#F1F5F9" font-family="sans-serif" font-size="13" font-weight="bold" lengthAdjust="spacing" textLength="106.9707" x="437.9733" y="237.2539">Evaluation Loop</text><path d="M16,260.9961 L84.4468,260.9961 L84.4468,268.3066 L74.4468,278.3066 L10,278.3066 L10,266.9961 A6,6 0 0 1 16,260.9961" fill="#0F172A" style="stroke:#334155;stroke-width:1.5;"/><rect fill="none" height="492.8555" rx="6" ry="6" style="stroke:#334155;stroke-width:1.5;" width="748.728" x="10" y="260.9961"/><text fill="#94A3B8" font-family="sans-serif" font-size="13" font-weight="bold" lengthAdjust="spacing" textLength="29.4468" x="25" y="274.5645">loop</text><text fill="#94A3B8" font-family="sans-serif" font-size="13" font-weight="bold" lengthAdjust="spacing" textLength="182.4253" x="99.4468" y="275.5645">[For each Golden Question]</text><g class="message" data-participant-1="Eval" data-participant-2="RAG"><polygon fill="#6366F1" points="239.2419,293.5723,249.2419,297.5723,239.2419,301.5723,243.2419,297.5723" style="stroke:#6366F1;stroke-width:1;"/><line style="stroke:#6366F1;stroke-width:1;" x1="92.9792" x2="245.2419" y1="297.5723" y2="297.5723"/><text fill="#94A3B8" font-family="sans-serif" font-size="11" lengthAdjust="spacing" textLength="84.0415" x="99.9792" y="293.252">generate(query)</text></g><g class="message" data-participant-1="RAG" data-participant-2="VDB"><polygon fill="#6366F1" points="369.24,320.5273,379.24,324.5273,369.24,328.5273,373.24,324.5273" style="stroke:#6366F1;stroke-width:1;"/><line style="stroke:#6366F1;stroke-width:1;" x1="261.2419" x2="375.24" y1="324.5273" y2="324.5273"/><text fill="#94A3B8" font-family="sans-serif" font-size="11" lengthAdjust="spacing" textLength="100.998" x="268.2419" y="320.207">Query embeddings</text></g><g class="message" data-participant-1="VDB" data-participant-2="RAG"><polygon fill="#6366F1" points="272.2419,347.4824,262.2419,351.4824,272.2419,355.4824,268.2419,351.4824" style="stroke:#6366F1;stroke-width:1;"/><line style="stroke:#6366F1;stroke-width:1;stroke-dasharray:2,2;" x1="266.2419" x2="385.24" y1="351.4824" y2="351.4824"/><text fill="#94A3B8" font-family="sans-serif" font-size="11" lengthAdjust="spacing" textLength="91.3838" x="278.2419" y="347.1621">Retrieved chunks</text></g><path d="M26,366.4824 L82.1387,366.4824 L82.1387,373.793 L72.1387,383.793 L20,383.793 L20,372.4824 A6,6 0 0 1 26,366.4824" fill="#0F172A" style="stroke:#334155;stroke-width:1.5;"/><rect fill="none" height="380.3691" rx="6" ry="6" style="stroke:#334155;stroke-width:1.5;" width="728.728" x="20" y="366.4824"/><text fill="#94A3B8" font-family="sans-serif" font-size="13" font-weight="bold" lengthAdjust="spacing" textLength="17.1387" x="35" y="380.0508">alt</text><text fill="#94A3B8" font-family="sans-serif" font-size="13" font-weight="bold" lengthAdjust="spacing" textLength="123.9888" x="97.1387" y="381.0508">[No chunks found]</text><g class="message" data-participant-1="RAG" data-participant-2="Eval"><polygon fill="#6366F1" points="103.9792,399.0586,93.9792,403.0586,103.9792,407.0586,99.9792,403.0586" style="stroke:#6366F1;stroke-width:1;"/><line style="stroke:#6366F1;stroke-width:1;stroke-dasharray:2,2;" x1="97.9792" x2="250.2419" y1="403.0586" y2="403.0586"/><text fill="#94A3B8" font-family="sans-serif" font-size="11" lengthAdjust="spacing" textLength="108.1147" x="109.9792" y="398.7383">NoContextResponse</text></g><g class="message" data-participant-1="Eval" data-participant-2="Log"><polygon fill="#6366F1" points="653.51,426.0137,663.51,430.0137,653.51,434.0137,657.51,430.0137" style="stroke:#6366F1;stroke-width:1;"/><line style="stroke:#6366F1;stroke-width:1;" x1="92.9792" x2="659.51" y1="430.0137" y2="430.0137"/><text fill="#94A3B8" font-family="sans-serif" font-size="11" lengthAdjust="spacing" textLength="90.5835" x="99.9792" y="425.6934">Log "no_context"</text></g><line style="stroke:#334155;stroke-width:1;stroke-dasharray:2,2;" x1="20" x2="748.728" y1="439.0137" y2="439.0137"/><text fill="#94A3B8" font-family="sans-serif" font-size="13" font-weight="bold" lengthAdjust="spacing" textLength="103.7524" x="25" y="451.582">[Chunks found]</text><g class="message" data-participant-1="RAG" data-participant-2="RR"><polygon fill="#6366F1" points="457.9321,470.2793,467.9321,474.2793,457.9321,478.2793,461.9321,474.2793" style="stroke:#6366F1;stroke-width:1;"/><line style="stroke:#6366F1;stroke-width:1;" x1="261.2419" x2="463.9321" y1="474.2793" y2="474.2793"/><text fill="#94A3B8" font-family="sans-serif" font-size="11" lengthAdjust="spacing" textLength="97.8828" x="268.2419" y="469.959">Rerank candidates</text></g><g class="message" data-participant-1="RR" data-participant-2="RAG"><polygon fill="#6366F1" points="272.2419,497.2344,262.2419,501.2344,272.2419,505.2344,268.2419,501.2344" style="stroke:#6366F1;stroke-width:1;"/><line style="stroke:#6366F1;stroke-width:1;stroke-dasharray:2,2;" x1="266.2419" x2="473.9321" y1="501.2344" y2="501.2344"/><text fill="#94A3B8" font-family="sans-serif" font-size="11" lengthAdjust="spacing" textLength="75.061" x="278.2419" y="496.9141">Top-k chunks</text></g><g class="message" data-participant-1="RAG" data-participant-2="LLM"><polygon fill="#6366F1" points="539.5054,524.1895,549.5054,528.1895,539.5054,532.1895,543.5054,528.1895" style="stroke:#6366F1;stroke-width:1;"/><line style="stroke:#6366F1;stroke-width:1;" x1="261.2419" x2="545.5054" y1="528.1895" y2="528.1895"/><text fill="#94A3B8" font-family="sans-serif" font-size="11" lengthAdjust="spacing" textLength="117.729" x="268.2419" y="523.8691">Generate with context</text></g><path d="M36,543.1895 L92.1387,543.1895 L92.1387,550.5 L82.1387,560.5 L30,560.5 L30,549.1895 A6,6 0 0 1 36,543.1895" fill="#0F172A" style="stroke:#334155;stroke-width:1.5;"/><rect fill="none" height="196.6621" rx="6" ry="6" style="stroke:#334155;stroke-width:1.5;" width="708.728" x="30" y="543.1895"/><text fill="#94A3B8" font-family="sans-serif" font-size="13" font-weight="bold" lengthAdjust="spacing" textLength="17.1387" x="45" y="556.7578">alt</text><text fill="#94A3B8" font-family="sans-serif" font-size="13" font-weight="bold" lengthAdjust="spacing" textLength="74.6802" x="107.1387" y="557.7578">[LLM Error]</text><g class="message" data-participant-1="LLM" data-participant-2="RAG"><polygon fill="#6366F1" points="272.2419,575.7656,262.2419,579.7656,272.2419,583.7656,268.2419,579.7656" style="stroke:#6366F1;stroke-width:1;"/><line style="stroke:#6366F1;stroke-width:1;stroke-dasharray:2,2;" x1="266.2419" x2="550.5054" y1="579.7656" y2="579.7656"/><text fill="#94A3B8" font-family="sans-serif" font-size="11" lengthAdjust="spacing" textLength="26.2217" x="278.2419" y="575.4453">Error</text></g><g class="message" data-participant-1="RAG" data-participant-2="Eval"><polygon fill="#6366F1" points="103.9792,602.7207,93.9792,606.7207,103.9792,610.7207,99.9792,606.7207" style="stroke:#6366F1;stroke-width:1;"/><line style="stroke:#6366F1;stroke-width:1;stroke-dasharray:2,2;" x1="97.9792" x2="250.2419" y1="606.7207" y2="606.7207"/><text fill="#94A3B8" font-family="sans-serif" font-size="11" lengthAdjust="spacing" textLength="77.1558" x="109.9792" y="602.4004">ErrorResponse</text></g><g class="message" data-participant-1="Eval" data-participant-2="Log"><polygon fill="#6366F1" points="653.51,629.6758,663.51,633.6758,653.51,637.6758,657.51,633.6758" style="stroke:#6366F1;stroke-width:1;"/><line style="stroke:#6366F1;stroke-width:1;" x1="92.9792" x2="659.51" y1="633.6758" y2="633.6758"/><text fill="#94A3B8" font-family="sans-serif" font-size="11" lengthAdjust="spacing" textLength="57.5674" x="99.9792" y="629.3555">Log "error"</text></g><line style="stroke:#334155;stroke-width:1;stroke-dasharray:2,2;" x1="30" x2="738.728" y1="642.6758" y2="642.6758"/><text fill="#94A3B8" font-family="sans-serif" font-size="13" font-weight="bold" lengthAdjust="spacing" textLength="61.7563" x="35" y="655.2441">[Success]</text><g class="message" data-participant-1="LLM" data-participant-2="RAG"><polygon fill="#6366F1" points="272.2419,673.9414,262.2419,677.9414,272.2419,681.9414,268.2419,677.9414" style="stroke:#6366F1;stroke-width:1;"/><line style="stroke:#6366F1;stroke-width:1;stroke-dasharray:2,2;" x1="266.2419" x2="555.5054" y1="677.9414" y2="677.9414"/><text fill="#94A3B8" font-family="sans-serif" font-size="11" lengthAdjust="spacing" textLength="95.8687" x="278.2419" y="673.6211">Generated answer</text></g><g class="message" data-participant-1="RAG" data-participant-2="Eval"><polygon fill="#6366F1" points="103.9792,700.8965,93.9792,704.8965,103.9792,708.8965,99.9792,704.8965" style="stroke:#6366F1;stroke-width:1;"/><line style="stroke:#6366F1;stroke-width:1;stroke-dasharray:2,2;" x1="97.9792" x2="250.2419" y1="704.8965" y2="704.8965"/><text fill="#94A3B8" font-family="sans-serif" font-size="11" lengthAdjust="spacing" textLength="73.4282" x="109.9792" y="700.5762">RAGResponse</text></g><g class="message" data-participant-1="Eval" data-participant-2="Log"><polygon fill="#6366F1" points="653.51,727.8516,663.51,731.8516,653.51,735.8516,657.51,731.8516" style="stroke:#6366F1;stroke-width:1;"/><line style="stroke:#6366F1;stroke-width:1;" x1="92.9792" x2="659.51" y1="731.8516" y2="731.8516"/><text fill="#94A3B8" font-family="sans-serif" font-size="11" lengthAdjust="spacing" textLength="64.0073" x="99.9792" y="727.5313">Log success</text></g><rect fill="#0F172A" height="3" rx="6" ry="6" style="stroke:#0F172A;stroke-width:1;" width="989.2019" x="0" y="781.5068"/><line style="stroke:#334155;stroke-width:1;" x1="0" x2="989.2019" y1="781.5068" y2="781.5068"/><line style="stroke:#334155;stroke-width:1;" x1="0" x2="989.2019" y1="784.5068" y2="784.5068"/><rect fill="#0F172A" height="23.3105" rx="6" ry="6" style="stroke:#334155;stroke-width:2;" width="146.4565" x="421.3727" y="770.8516"/><text fill="#F1F5F9" font-family="sans-serif" font-size="13" font-weight="bold" lengthAdjust="spacing" textLength="128.1719" x="427.3727" y="787.4199">Metrics Calculation</text><g class="message" data-participant-1="Eval" data-participant-2="Report"><polygon fill="#6366F1" points="819.1086,819.1172,829.1086,823.1172,819.1086,827.1172,823.1086,823.1172" style="stroke:#6366F1;stroke-width:1;"/><line style="stroke:#6366F1;stroke-width:1;" x1="92.9792" x2="825.1086" y1="823.1172" y2="823.1172"/><text fill="#94A3B8" font-family="sans-serif" font-size="11" lengthAdjust="spacing" textLength="91.7383" x="99.9792" y="818.7969">Calculate metrics</text></g><g class="message" data-participant-1="Report" data-participant-2="Report"><line style="stroke:#6366F1;stroke-width:1;" x1="841.1086" x2="883.1086" y1="850.0723" y2="850.0723"/><line style="stroke:#6366F1;stroke-width:1;" x1="883.1086" x2="883.1086" y1="850.0723" y2="863.0723"/><line style="stroke:#6366F1;stroke-width:1;" x1="842.1086" x2="883.1086" y1="863.0723" y2="863.0723"/><polygon fill="#6366F1" points="852.1086,859.0723,842.1086,863.0723,852.1086,867.0723,848.1086,863.0723" style="stroke:#6366F1;stroke-width:1;"/><text fill="#94A3B8" font-family="sans-serif" font-size="11" lengthAdjust="spacing" textLength="65.8818" x="848.1086" y="845.752">Answer Rate</text></g><g class="message" data-participant-1="Report" data-participant-2="Report"><line style="stroke:#6366F1;stroke-width:1;" x1="841.1086" x2="883.1086" y1="890.0273" y2="890.0273"/><line style="stroke:#6366F1;stroke-width:1;" x1="883.1086" x2="883.1086" y1="890.0273" y2="903.0273"/><line style="stroke:#6366F1;stroke-width:1;" x1="842.1086" x2="883.1086" y1="903.0273" y2="903.0273"/><polygon fill="#6366F1" points="852.1086,899.0273,842.1086,903.0273,852.1086,907.0273,848.1086,903.0273" style="stroke:#6366F1;stroke-width:1;"/><text fill="#94A3B8" font-family="sans-serif" font-size="11" lengthAdjust="spacing" textLength="75.8237" x="848.1086" y="885.707">Rejection Rate</text></g><g class="message" data-participant-1="Report" data-participant-2="Report"><line style="stroke:#6366F1;stroke-width:1;" x1="841.1086" x2="883.1086" y1="929.9824" y2="929.9824"/><line style="stroke:#6366F1;stroke-width:1;" x1="883.1086" x2="883.1086" y1="929.9824" y2="942.9824"/><line style="stroke:#6366F1;stroke-width:1;" x1="842.1086" x2="883.1086" y1="942.9824" y2="942.9824"/><polygon fill="#6366F1" points="852.1086,938.9824,842.1086,942.9824,852.1086,946.9824,848.1086,942.9824" style="stroke:#6366F1;stroke-width:1;"/><text fill="#94A3B8" font-family="sans-serif" font-size="11" lengthAdjust="spacing" textLength="86.8936" x="848.1086" y="925.6621">Source Accuracy</text></g><g class="message" data-participant-1="Report" data-participant-2="Report"><line style="stroke:#6366F1;stroke-width:1;" x1="841.1086" x2="883.1086" y1="969.9375" y2="969.9375"/><line style="stroke:#6366F1;stroke-width:1;" x1="883.1086" x2="883.1086" y1="969.9375" y2="982.9375"/><line style="stroke:#6366F1;stroke-width:1;" x1="842.1086" x2="883.1086" y1="982.9375" y2="982.9375"/><polygon fill="#6366F1" points="852.1086,978.9375,842.1086,982.9375,852.1086,986.9375,848.1086,982.9375" style="stroke:#6366F1;stroke-width:1;"/><text fill="#94A3B8" font-family="sans-serif" font-size="11" lengthAdjust="spacing" textLength="82.1777" x="848.1086" y="965.6172">Coverage Score</text></g><g class="message" data-participant-1="Report" data-participant-2="Eval"><polygon fill="#6366F1" points="103.9792,1005.8926,93.9792,1009.8926,103.9792,1013.8926,99.9792,1009.8926" style="stroke:#6366F1;stroke-width:1;"/><line style="stroke:#6366F1;stroke-width:1;stroke-dasharray:2,2;" x1="97.9792" x2="835.1086" y1="1009.8926" y2="1009.8926"/><text fill="#94A3B8" font-family="sans-serif" font-size="11" lengthAdjust="spacing" textLength="93.3281" x="109.9792" y="1005.5723">EvaluationMetrics</text></g><rect fill="#0F172A" height="3" rx="6" ry="6" style="stroke:#0F172A;stroke-width:1;" width="989.2019" x="0" y="1038.5479"/><line style="stroke:#334155;stroke-width:1;" x1="0" x2="989.2019" y1="1038.5479" y2="1038.5479"/><line style="stroke:#334155;stroke-width:1;" x1="0" x2="989.2019" y1="1041.5479" y2="1041.5479"/><rect fill="#0F172A" height="23.3105" rx="6" ry="6" style="stroke:#334155;stroke-width:2;" width="105.0063" x="442.0978" y="1027.8926"/><text fill="#F1F5F9" font-family="sans-serif" font-size="13" font-weight="bold" lengthAdjust="spacing" textLength="86.7217" x="448.0978" y="1044.4609">Gap Analysis</text><g class="message" data-participant-1="Eval" data-participant-2="Report"><polygon fill="#6366F1" points="819.1086,1076.1582,829.1086,1080.1582,819.1086,1084.1582,823.1086,1080.1582" style="stroke:#6366F1;stroke-width:1;"/><line style="stroke:#6366F1;stroke-width:1;" x1="92.9792" x2="825.1086" y1="1080.1582" y2="1080.1582"/><text fill="#94A3B8" font-family="sans-serif" font-size="11" lengthAdjust="spacing" textLength="69.0776" x="99.9792" y="1075.8379">Identify gaps</text></g><g class="message" data-participant-1="Report" data-participant-2="Report"><line style="stroke:#6366F1;stroke-width:1;" x1="841.1086" x2="883.1086" y1="1107.1133" y2="1107.1133"/><line style="stroke:#6366F1;stroke-width:1;" x1="883.1086" x2="883.1086" y1="1107.1133" y2="1120.1133"/><line style="stroke:#6366F1;stroke-width:1;" x1="842.1086" x2="883.1086" y1="1120.1133" y2="1120.1133"/><polygon fill="#6366F1" points="852.1086,1116.1133,842.1086,1120.1133,852.1086,1124.1133,848.1086,1120.1133" style="stroke:#6366F1;stroke-width:1;"/><text fill="#94A3B8" font-family="sans-serif" font-size="11" lengthAdjust="spacing" textLength="119.0933" x="848.1086" y="1102.793">Find missing coverage</text></g><g class="message" data-participant-1="Report" data-participant-2="Report"><line style="stroke:#6366F1;stroke-width:1;" x1="841.1086" x2="883.1086" y1="1147.0684" y2="1147.0684"/><line style="stroke:#6366F1;stroke-width:1;" x1="883.1086" x2="883.1086" y1="1147.0684" y2="1160.0684"/><line style="stroke:#6366F1;stroke-width:1;" x1="842.1086" x2="883.1086" y1="1160.0684" y2="1160.0684"/><polygon fill="#6366F1" points="852.1086,1156.0684,842.1086,1160.0684,852.1086,1164.0684,848.1086,1160.0684" style="stroke:#6366F1;stroke-width:1;"/><text fill="#94A3B8" font-family="sans-serif" font-size="11" lengthAdjust="spacing" textLength="112.127" x="848.1086" y="1142.748">Detect hallucinations</text></g><g class="message" data-participant-1="Report" data-participant-2="Eval"><polygon fill="#6366F1" points="103.9792,1183.0234,93.9792,1187.0234,103.9792,1191.0234,99.9792,1187.0234" style="stroke:#6366F1;stroke-width:1;"/><line style="stroke:#6366F1;stroke-width:1;stroke-dasharray:2,2;" x1="97.9792" x2="835.1086" y1="1187.0234" y2="1187.0234"/><text fill="#94A3B8" font-family="sans-serif" font-size="11" lengthAdjust="spacing" textLength="46.1162" x="109.9792" y="1182.7031">Gaps list</text></g><rect fill="#0F172A" height="3" rx="6" ry="6" style="stroke:#0F172A;stroke-width:1;" width="989.2019" x="0" y="1215.6787"/><line style="stroke:#334155;stroke-width:1;" x1="0" x2="989.2019" y1="1215.6787" y2="1215.6787"/><line style="stroke:#334155;stroke-width:1;" x1="0" x2="989.2019" y1="1218.6787" y2="1218.6787"/><rect fill="#0F172A" height="23.3105" rx="6" ry="6" style="stroke:#334155;stroke-width:2;" width="140.604" x="424.299" y="1205.0234"/><text fill="#F1F5F9" font-family="sans-serif" font-size="13" font-weight="bold" lengthAdjust="spacing" textLength="122.3193" x="430.299" y="1221.5918">Report Generation</text><g class="message" data-participant-1="Eval" data-participant-2="Report"><polygon fill="#6366F1" points="824.1086,1253.2891,834.1086,1257.2891,824.1086,1261.2891,828.1086,1257.2891" style="stroke:#6366F1;stroke-width:1;"/><line style="stroke:#6366F1;stroke-width:1;" x1="92.9792" x2="830.1086" y1="1257.2891" y2="1257.2891"/><text fill="#94A3B8" font-family="sans-serif" font-size="11" lengthAdjust="spacing" textLength="147.3291" x="99.9792" y="1252.9688">Generate recommendations</text></g><g class="message" data-participant-1="Report" data-participant-2="Log"><polygon fill="#6366F1" points="676.51,1280.2441,666.51,1284.2441,676.51,1288.2441,672.51,1284.2441" style="stroke:#6366F1;stroke-width:1;"/><line style="stroke:#6366F1;stroke-width:1;" x1="670.51" x2="835.1086" y1="1284.2441" y2="1284.2441"/><text fill="#94A3B8" font-family="sans-serif" font-size="11" lengthAdjust="spacing" textLength="146.5986" x="682.51" y="1279.9238">Save evaluation_report.json</text></g><g class="message" data-participant-1="Eval" data-participant-2="Eval"><line style="stroke:#6366F1;stroke-width:1;" x1="92.9792" x2="134.9792" y1="1311.1992" y2="1311.1992"/><line style="stroke:#6366F1;stroke-width:1;" x1="134.9792" x2="134.9792" y1="1311.1992" y2="1324.1992"/><line style="stroke:#6366F1;stroke-width:1;" x1="93.9792" x2="134.9792" y1="1324.1992" y2="1324.1992"/><polygon fill="#6366F1" points="103.9792,1320.1992,93.9792,1324.1992,103.9792,1328.1992,99.9792,1324.1992" style="stroke:#6366F1;stroke-width:1;"/><text fill="#94A3B8" font-family="sans-serif" font-size="11" lengthAdjust="spacing" textLength="136.2002" x="99.9792" y="1306.8789">Print summary to console</text></g><!--SRC=[lLXRSzeu57xdLwZ9mxOFwOH0o6NQpX0WQMP8DsjePzyoGZucAhRbbMHIkjF_laVo1HdRcJx0yW11ttSk-ixHiSARHD9bH4b8DoBLH4MWQKmxdJ_8nps-qDrZZuofN97vCqH0HY8KKf6tWHGHINedh7-Yz2O4zJv9e_3TliE_yI7WCOPzkhaZ-UluzEnqqBrmiDbNxxR0Wkx56NMmqT0RvrWNpgvw2mURJ_wUvrZG3Sw3AmTx-3gVP8R7LttQMrnMujtafiU3_aN_qlKvlVyooNtsUltk-Rc3FNhtnHukkvSikAnYWzDJYmrwWq7GTR39myGRJiTzn8zxVRztvIRwxVxFyzpmSd7EWi41Uk0k50iQajcAnmcLDDft15Ku9WlALaifqjYtdMOBxy2uQvg6-bR4ki1D9PePC_uJIBVdWEgP-kA5nqiIq521W-GXPGoITCyE8E4C_aaXPa36d2vDn5a2Z0US7KvBLOJyjsFQOoYbU2bKozfjk-ugQbk_2cLITksYVPlo0AROW3T2-Y0BIzFyLRXMJdDMjsuUgTISyOJ6kkh9oS_brDoPuxtBgdL70rxqHfd9a6aXgpba9yj1Qz5t6OsHxTkD-D4YbK7QLKAqtUcOhpcwR75SeEtESqPxW3kqIrhSPrYxSuj_1heJODjSbj0CsJSF0f2cVr-f-fRJd6I9D-wnHBCqMpRpg-EUAOqMGc-IubIDNf5Wr9BLyFLEQkp2IXQQwx18e75dsnOVP6tqMeVLSgp4YeKkGhrIY9QTrilxwm2pTMxasBVRJEF9ceOfrLp4v3OKB_Kn_dPErOfSl3l4pMixijI-lITRt-GetoIG6PCyqKU4Ahjnyk53jlBfKzN06zwX4dBD6LYo-OxSR6MN_0tCQ2JZ6qlzDhv1wfXgkg2gnlL0qdW5ClFgjJkTJXyi1p_RIKxnfcAvpDtYdsYIBTJZ9q9gSWTu3w2OTPP7jkY6sN-nxsEkEGtvJvllllr__BWJ0DrtR8bFFjbINwCir2TB4VeGFs6FAyDIxxyhJAOWecRNP1G2bIIHiEOYLIGKItK0EIgb4ya1zDY9O0G9pUSjzYfGzapkh1RahrmBEyyA9R3Xhyaown9uYtB9pJjBe4ppjJbAo70UPNW-q0fx_zhuani2qG9y7s-Ygcg65BjWZib94SW3BJcimIViEOrNcOaFDQFCLQZ95v4pIM2cTQVurydcKLRyYnZXU8OVsWELOB6Xv5KARixBKIoUM4O-iYp0wpCPjSR0n3sJjpdDXD7OvpucgahILYPlQ-XjTpmNoSdAtUtEZXsptS0u4QwB0mpaXUjdacTUZuxSkXyZe1ah4xpyodBLtcfnjKon3bVLjNXDsMPrmN2FIf8LTvOo1agr9r3iqISqLYzGpSNHojraFKtyzdj9gfry8AzvyUbM1tlVBEz_B3oOay0K6T6GfU6XHcL357TUPi-3wn864cK6dQq2bjB9dnoEpT2MYdX8Qa0z-8uFInEkXJ0JgSJBnv2nL5AsQM2Cn1gxOccUvK9kNMpRiXnx-IuxRk6oj0_m0m9DSEiqt2Yk3b0mrtrJfUvna6iURCYI9hzJfLiU-oJYIfcV2bYkQ0Dl31hhHPvf6AQCnrPMLTSSqyC79LVwVz6wUeSvp0cfnMXIlHp24fY88fm8EmBbqsL6rq2WxCidQU7grICJyb5olAMfD8eeFaErC9DT2Rpx_mS0]--></g></svg>